<svg width="125" height="28" viewBox="0 0 125 28" fill="none" xmlns="http://www.w3.org/2000/svg">
<rect y="0.792236" width="125" height="27" rx="13.5" fill="#E19B14" fill-opacity="0.96"/>
<mask id="mask0_191_1211" style="mask-type:alpha" maskUnits="userSpaceOnUse" x="12" y="4" width="20" height="21">
<rect x="12" y="4.29224" width="20" height="20" fill="#D9D9D9"/>
</mask>
<g mask="url(#mask0_191_1211)">
<path d="M19.935 12.6827C19.9845 11.8816 20.385 11.091 21.0794 10.6073C20.9441 10.3264 20.6658 10.1314 20.3356 10.1314H19.5709L20.3694 9.55921C20.5566 9.42657 20.6008 9.1665 20.4656 8.97925L20.2237 8.64116C20.0911 8.45391 19.831 8.4097 19.6438 8.54493L18.8115 9.14049L19.1106 8.34468C19.1912 8.12882 19.082 7.88955 18.8662 7.80893L18.476 7.66329C18.2602 7.58267 18.0209 7.6919 17.9403 7.90776L17.4228 9.28613L16.9052 7.90516C16.8246 7.6893 16.5853 7.58007 16.3695 7.66069L15.9794 7.80633C15.7635 7.88695 15.6543 8.12882 15.7375 8.34208L16.0366 9.13789L15.2018 8.54493C15.0145 8.4123 14.7544 8.45391 14.6218 8.64116L14.3799 8.97925C14.2473 9.1665 14.2889 9.42657 14.4762 9.55921L15.2746 10.1314H14.51C14.0496 10.1314 13.6777 10.5033 13.6777 10.9636V20.1181C13.6777 20.5784 14.0496 20.9503 14.51 20.9503H18.9026C18.7595 20.7032 18.6711 20.4224 18.6711 20.1181V14.2925C18.6711 13.5149 19.212 12.8621 19.935 12.6827ZM19.5033 20.1181C19.5033 20.5784 19.8752 20.9503 20.3356 20.9503H24.4967V17.6214H19.5033V20.1181ZM25.3289 20.9503H29.49C29.9504 20.9503 30.3223 20.5784 30.3223 20.1181V17.6214H25.3289V20.9503ZM29.49 13.4603H28.9595C29.0271 13.2626 29.0739 13.0572 29.0739 12.8413C29.0739 11.9181 28.3717 10.9636 27.1988 10.9636C25.9479 10.9636 25.2249 12.2041 24.9128 12.9219C24.5981 12.2041 23.8751 10.9636 22.6268 10.9636C21.4539 10.9636 20.7517 11.9181 20.7517 12.8413C20.7517 13.0572 20.7959 13.2626 20.8661 13.4603H20.3356C19.8752 13.4603 19.5033 13.8322 19.5033 14.2925V16.7892H24.4967V13.4603H24.8946L24.9128 13.4551L24.931 13.4603H25.3289V16.7892H30.3223V14.2925C30.3223 13.8322 29.9504 13.4603 29.49 13.4603ZM22.4161 13.4603C22.3459 13.4239 22.2835 13.3823 22.2289 13.3354C22.039 13.169 22 12.9765 22 12.8413C22 12.589 22.1665 12.2119 22.6268 12.2119C23.1131 12.2119 23.5526 12.9245 23.7841 13.4603H22.4161ZM27.5967 13.3354C27.5421 13.3823 27.4797 13.4239 27.4095 13.4603H26.0415C26.2704 12.9323 26.7125 12.2119 27.1988 12.2119C27.6592 12.2119 27.8256 12.589 27.8256 12.8413C27.8256 12.9765 27.7866 13.169 27.5967 13.3354Z" fill="white"/>
</g>
<path d="M38.576 19.2922H36.4667L40.3072 8.38315H42.7468L46.5927 19.2922H44.4834L41.5696 10.6204H41.4844L38.576 19.2922ZM38.6453 15.0149H44.3981V16.6023H38.6453V15.0149ZM54.2272 11.1104L51.3135 19.2922H49.1828L46.2691 11.1104H48.3252L50.2056 17.1882H50.2908L52.1764 11.1104H54.2272ZM57.6816 19.4574C57.1631 19.4574 56.6962 19.365 56.2807 19.1804C55.8687 18.9922 55.542 18.7152 55.3006 18.3494C55.0626 17.9836 54.9437 17.5326 54.9437 16.9964C54.9437 16.5348 55.0289 16.153 55.1994 15.8512C55.3698 15.5493 55.6024 15.3079 55.8972 15.1268C56.1919 14.9456 56.5239 14.8089 56.8932 14.7166C57.2661 14.6207 57.6514 14.5515 58.0491 14.5089C58.5285 14.4591 58.9174 14.4148 59.2157 14.3757C59.514 14.3331 59.7306 14.2692 59.8655 14.1839C60.004 14.0951 60.0733 13.9584 60.0733 13.7738V13.7418C60.0733 13.3405 59.9543 13.0298 59.7164 12.8096C59.4785 12.5895 59.1358 12.4794 58.6883 12.4794C58.216 12.4794 57.8414 12.5824 57.5644 12.7883C57.291 12.9943 57.1063 13.2375 57.0104 13.5181L55.21 13.2624C55.3521 12.7652 55.5864 12.3498 55.9131 12.016C56.2398 11.6786 56.6393 11.4265 57.1116 11.2596C57.5839 11.0891 58.106 11.0039 58.6777 11.0039C59.0719 11.0039 59.4643 11.05 59.8549 11.1424C60.2455 11.2347 60.6024 11.3874 60.9256 11.6005C61.2487 11.81 61.5079 12.0959 61.7033 12.4581C61.9021 12.8203 62.0016 13.2731 62.0016 13.8164V19.2922H60.1479V18.1683H60.0839C59.9668 18.3956 59.8016 18.6086 59.5886 18.8075C59.379 19.0028 59.1145 19.1608 58.7949 19.2816C58.4788 19.3988 58.1077 19.4574 57.6816 19.4574ZM58.1823 18.0405C58.5694 18.0405 58.905 17.9641 59.1891 17.8114C59.4731 17.6552 59.6915 17.4492 59.8442 17.1935C60.0005 16.9378 60.0786 16.6591 60.0786 16.3572V15.3931C60.0182 15.4428 59.9153 15.489 59.7697 15.5316C59.6276 15.5742 59.4678 15.6115 59.2903 15.6434C59.1127 15.6754 58.9369 15.7038 58.7629 15.7287C58.5889 15.7535 58.438 15.7748 58.3101 15.7926C58.0225 15.8317 57.765 15.8956 57.5378 15.9844C57.3105 16.0731 57.1312 16.1974 56.9998 16.3572C56.8684 16.5135 56.8027 16.7159 56.8027 16.9645C56.8027 17.3196 56.9323 17.5877 57.1915 17.7688C57.4508 17.9499 57.781 18.0405 58.1823 18.0405ZM65.8687 14.4982V19.2922H63.9405V11.1104H65.7835V12.5007H65.8794C66.0676 12.0426 66.3677 11.6786 66.7796 11.4087C67.1951 11.1388 67.7082 11.0039 68.319 11.0039C68.8837 11.0039 69.3755 11.1246 69.7945 11.3661C70.2171 11.6076 70.5438 11.9574 70.7746 12.4155C71.009 12.8736 71.1244 13.4293 71.1209 14.0827V19.2922H69.1926V14.381C69.1926 13.8341 69.0506 13.4062 68.7665 13.0973C68.4859 12.7883 68.0971 12.6339 67.5999 12.6339C67.2626 12.6339 66.9625 12.7084 66.6997 12.8576C66.4405 13.0032 66.2363 13.2145 66.0871 13.4915C65.9415 13.7684 65.8687 14.104 65.8687 14.4982ZM77.1667 11.1104V12.6019H72.4632V11.1104H77.1667ZM73.6244 9.15019H75.5527V16.8313C75.5527 17.0905 75.5918 17.2894 75.6699 17.4279C75.7516 17.5628 75.8581 17.6552 75.9895 17.7049C76.1209 17.7546 76.2665 17.7795 76.4263 17.7795C76.547 17.7795 76.6571 17.7706 76.7565 17.7528C76.8595 17.7351 76.9376 17.7191 76.9909 17.7049L77.3158 19.2123C77.2128 19.2478 77.0655 19.2869 76.8737 19.3295C76.6855 19.3721 76.4547 19.397 76.1812 19.4041C75.6983 19.4183 75.2633 19.3455 74.8762 19.1857C74.4891 19.0223 74.182 18.7702 73.9547 18.4293C73.731 18.0884 73.6209 17.6623 73.6244 17.1509V9.15019ZM81.1337 19.4574C80.6153 19.4574 80.1483 19.365 79.7328 19.1804C79.3209 18.9922 78.9942 18.7152 78.7527 18.3494C78.5148 17.9836 78.3958 17.5326 78.3958 16.9964C78.3958 16.5348 78.481 16.153 78.6515 15.8512C78.822 15.5493 79.0546 15.3079 79.3493 15.1268C79.644 14.9456 79.9761 14.8089 80.3454 14.7166C80.7183 14.6207 81.1036 14.5515 81.5013 14.5089C81.9807 14.4591 82.3695 14.4148 82.6678 14.3757C82.9661 14.3331 83.1828 14.2692 83.3177 14.1839C83.4562 14.0951 83.5254 13.9584 83.5254 13.7738V13.7418C83.5254 13.3405 83.4065 13.0298 83.1685 12.8096C82.9306 12.5895 82.5879 12.4794 82.1405 12.4794C81.6682 12.4794 81.2935 12.5824 81.0166 12.7883C80.7431 12.9943 80.5585 13.2375 80.4626 13.5181L78.6622 13.2624C78.8042 12.7652 79.0386 12.3498 79.3653 12.016C79.692 11.6786 80.0915 11.4265 80.5638 11.2596C81.0361 11.0891 81.5581 11.0039 82.1298 11.0039C82.524 11.0039 82.9164 11.05 83.307 11.1424C83.6977 11.2347 84.0546 11.3874 84.3777 11.6005C84.7009 11.81 84.9601 12.0959 85.1554 12.4581C85.3543 12.8203 85.4537 13.2731 85.4537 13.8164V19.2922H83.6V18.1683H83.5361C83.4189 18.3956 83.2538 18.6086 83.0407 18.8075C82.8312 19.0028 82.5666 19.1608 82.247 19.2816C81.931 19.3988 81.5599 19.4574 81.1337 19.4574ZM81.6345 18.0405C82.0215 18.0405 82.3571 17.9641 82.6412 17.8114C82.9253 17.6552 83.1437 17.4492 83.2964 17.1935C83.4526 16.9378 83.5308 16.6591 83.5308 16.3572V15.3931C83.4704 15.4428 83.3674 15.489 83.2218 15.5316C83.0798 15.5742 82.92 15.6115 82.7424 15.6434C82.5649 15.6754 82.3891 15.7038 82.2151 15.7287C82.0411 15.7535 81.8901 15.7748 81.7623 15.7926C81.4747 15.8317 81.2172 15.8956 80.9899 15.9844C80.7627 16.0731 80.5833 16.1974 80.4519 16.3572C80.3205 16.5135 80.2548 16.7159 80.2548 16.9645C80.2548 17.3196 80.3845 17.5877 80.6437 17.7688C80.9029 17.9499 81.2332 18.0405 81.6345 18.0405ZM90.9509 22.5309C90.2584 22.5309 89.6636 22.4368 89.1664 22.2486C88.6693 22.0639 88.2698 21.8153 87.9679 21.5028C87.6661 21.1903 87.4565 20.8441 87.3394 20.4641L89.0759 20.0433C89.154 20.2031 89.2676 20.3611 89.4168 20.5174C89.5659 20.6772 89.7666 20.8086 90.0187 20.9116C90.2744 21.0181 90.5957 21.0714 90.9828 21.0714C91.5297 21.0714 91.9825 20.9382 92.3411 20.6719C92.6998 20.4091 92.8791 19.9758 92.8791 19.3721V17.8221H92.7832C92.6838 18.0209 92.5382 18.2251 92.3465 18.4346C92.1582 18.6442 91.9079 18.8199 91.5954 18.962C91.2864 19.104 90.8976 19.175 90.4288 19.175C89.8003 19.175 89.2303 19.0277 88.719 18.7329C88.2112 18.4346 87.8063 17.9907 87.5045 17.4013C87.2062 16.8082 87.057 16.066 87.057 15.1747C87.057 14.2763 87.2062 13.5181 87.5045 12.9002C87.8063 12.2787 88.2129 11.8082 88.7243 11.4886C89.2357 11.1655 89.8056 11.0039 90.4342 11.0039C90.9136 11.0039 91.3078 11.0856 91.6167 11.2489C91.9292 11.4087 92.1778 11.6023 92.3624 11.8295C92.5471 12.0532 92.6874 12.2645 92.7832 12.4634H92.8898V11.1104H94.7914V19.4254C94.7914 20.125 94.6245 20.7038 94.2907 21.1619C93.9569 21.62 93.5006 21.9627 92.9217 22.19C92.3429 22.4172 91.6859 22.5309 90.9509 22.5309ZM90.9668 17.6623C91.3752 17.6623 91.7232 17.5628 92.0109 17.364C92.2985 17.1651 92.5169 16.8792 92.6661 16.5064C92.8152 16.1335 92.8898 15.6861 92.8898 15.164C92.8898 14.6491 92.8152 14.1981 92.6661 13.8111C92.5205 13.424 92.3038 13.1239 92.0162 12.9108C91.7321 12.6942 91.3823 12.5859 90.9668 12.5859C90.5372 12.5859 90.1785 12.6978 89.8908 12.9215C89.6032 13.1452 89.3866 13.4524 89.241 13.843C89.0954 14.2301 89.0226 14.6704 89.0226 15.164C89.0226 15.6648 89.0954 16.1033 89.241 16.4797C89.3901 16.8526 89.6085 17.1438 89.8962 17.3533C90.1874 17.5593 90.5443 17.6623 90.9668 17.6623ZM100.39 19.452C99.5695 19.452 98.861 19.2816 98.2644 18.9407C97.6714 18.5962 97.2151 18.1097 96.8955 17.4812C96.5759 16.8491 96.4161 16.1051 96.4161 15.2493C96.4161 14.4076 96.5759 13.669 96.8955 13.0334C97.2186 12.3942 97.6696 11.897 98.2484 11.5419C98.8273 11.1832 99.5073 11.0039 100.289 11.0039C100.793 11.0039 101.269 11.0856 101.716 11.2489C102.167 11.4087 102.565 11.6573 102.909 11.9947C103.257 12.332 103.531 12.7617 103.73 13.2837C103.928 13.8022 104.028 14.4201 104.028 15.1374V15.7287H97.3216V14.429H102.18C102.176 14.0596 102.096 13.7312 101.94 13.4435C101.784 13.1523 101.565 12.9233 101.285 12.7564C101.008 12.5895 100.685 12.506 100.315 12.506C99.921 12.506 99.5748 12.6019 99.2765 12.7937C98.9782 12.9819 98.7456 13.2304 98.5787 13.5394C98.4153 13.8448 98.3319 14.1804 98.3283 14.5461V15.6807C98.3283 16.1566 98.4153 16.565 98.5894 16.9059C98.7634 17.2432 99.0066 17.5025 99.3191 17.6836C99.6316 17.8611 99.9974 17.9499 100.416 17.9499C100.697 17.9499 100.951 17.9108 101.178 17.8327C101.405 17.751 101.602 17.6321 101.769 17.4758C101.936 17.3196 102.062 17.126 102.148 16.8952L103.948 17.0976C103.834 17.5735 103.618 17.989 103.298 18.3441C102.982 18.6956 102.577 18.9691 102.084 19.1644C101.59 19.3562 101.025 19.452 100.39 19.452ZM112.126 13.2731L110.368 13.4648C110.318 13.2873 110.231 13.1204 110.107 12.9641C109.986 12.8079 109.823 12.6818 109.617 12.5859C109.411 12.49 109.159 12.4421 108.861 12.4421C108.459 12.4421 108.122 12.5291 107.848 12.7031C107.579 12.8771 107.445 13.1026 107.449 13.3796C107.445 13.6175 107.532 13.8111 107.71 13.9602C107.891 14.1094 108.189 14.2319 108.605 14.3277L110 14.626C110.775 14.7929 111.35 15.0575 111.726 15.4197C112.106 15.7819 112.298 16.256 112.302 16.842C112.298 17.3569 112.147 17.8114 111.849 18.2056C111.554 18.5962 111.144 18.9016 110.618 19.1218C110.093 19.342 109.489 19.452 108.807 19.452C107.806 19.452 107 19.2425 106.389 18.8235C105.778 18.4009 105.414 17.8132 105.297 17.0603L107.177 16.8792C107.263 17.2486 107.444 17.5273 107.721 17.7155C107.998 17.9037 108.358 17.9978 108.802 17.9978C109.26 17.9978 109.628 17.9037 109.905 17.7155C110.185 17.5273 110.325 17.2947 110.325 17.0177C110.325 16.7834 110.235 16.5898 110.054 16.4371C109.876 16.2844 109.599 16.1672 109.223 16.0856L107.827 15.7926C107.042 15.6292 106.462 15.354 106.085 14.967C105.709 14.5763 105.523 14.0827 105.526 13.4861C105.523 12.9819 105.659 12.5451 105.936 12.1758C106.217 11.8029 106.606 11.5152 107.103 11.3128C107.603 11.1069 108.181 11.0039 108.834 11.0039C109.793 11.0039 110.547 11.2081 111.098 11.6165C111.652 12.0248 111.994 12.577 112.126 13.2731Z" fill="white"/>
</svg>
