<svg width="94" height="27" viewBox="0 0 94 27" fill="none" xmlns="http://www.w3.org/2000/svg">
<rect width="94" height="27" rx="13.5" fill="#1475E1" fill-opacity="0.96"/>
<mask id="mask0_14_863" style="mask-type:alpha" maskUnits="userSpaceOnUse" x="12" y="3" width="20" height="21">
<rect x="12" y="3.5" width="20" height="20" fill="#D9D9D9"/>
</mask>
<g mask="url(#mask0_14_863)">
<path d="M15 19C15 19.5531 15.4469 20 16 20H21V15H15V19ZM23 20H28C28.5531 20 29 19.5531 29 19V15H23V20ZM29 10H27.6844C27.8781 9.62188 28 9.20312 28 8.75C28 7.23438 26.7656 6 25.25 6C23.95 6 23.1094 6.66563 22.0312 8.13438C20.9531 6.66563 20.1125 6 18.8125 6C17.2969 6 16.0625 7.23438 16.0625 8.75C16.0625 9.20312 16.1812 9.62188 16.3781 10H15C14.4469 10 14 10.4469 14 11V13.5C14 13.775 14.225 14 14.5 14H29.5C29.775 14 30 13.775 30 13.5V11C30 10.4469 29.5531 10 29 10ZM18.8094 10C18.1187 10 17.5594 9.44062 17.5594 8.75C17.5594 8.05938 18.1187 7.5 18.8094 7.5C19.4312 7.5 19.8906 7.60313 21.5 10H18.8094ZM25.25 10H22.5594C24.1656 7.60938 24.6125 7.5 25.25 7.5C25.9406 7.5 26.5 8.05938 26.5 8.75C26.5 9.44062 25.9406 10 25.25 10Z" fill="white"/>
</g>
<path d="M37.3343 18.5V7.59091H41.5104C42.2988 7.59091 42.954 7.7152 43.476 7.96378C44.0016 8.20881 44.394 8.54439 44.6532 8.97053C44.916 9.39666 45.0474 9.87962 45.0474 10.4194C45.0474 10.8633 44.9621 11.2433 44.7917 11.5593C44.6212 11.8718 44.3922 12.1257 44.1045 12.321C43.8169 12.5163 43.4955 12.6566 43.1404 12.7418V12.8484C43.5275 12.8697 43.8986 12.9886 44.2537 13.2053C44.6123 13.4183 44.9053 13.7202 45.1326 14.1108C45.3599 14.5014 45.4735 14.9737 45.4735 15.5277C45.4735 16.0923 45.3368 16.6001 45.0633 17.0511C44.7899 17.4986 44.378 17.8519 43.8275 18.1112C43.2771 18.3704 42.5847 18.5 41.7501 18.5H37.3343ZM39.3105 16.8487H41.4359C42.1532 16.8487 42.6699 16.712 42.9859 16.4386C43.3055 16.1616 43.4653 15.8065 43.4653 15.3732C43.4653 15.0501 43.3854 14.7589 43.2256 14.4996C43.0658 14.2369 42.8386 14.0309 42.5438 13.8817C42.2491 13.729 41.8975 13.6527 41.4891 13.6527H39.3105V16.8487ZM39.3105 12.2305H41.2654C41.6063 12.2305 41.9135 12.1683 42.1869 12.044C42.4604 11.9162 42.6752 11.7369 42.8315 11.506C42.9913 11.2717 43.0712 10.9947 43.0712 10.6751C43.0712 10.2525 42.922 9.90447 42.6237 9.63104C42.329 9.3576 41.8904 9.22088 41.308 9.22088H39.3105V12.2305ZM50.6764 18.6598C49.8774 18.6598 49.1849 18.484 48.5989 18.1325C48.013 17.7809 47.5585 17.2891 47.2353 16.657C46.9157 16.0249 46.7559 15.2862 46.7559 14.4411C46.7559 13.5959 46.9157 12.8555 47.2353 12.2198C47.5585 11.5842 48.013 11.0906 48.5989 10.739C49.1849 10.3874 49.8774 10.2116 50.6764 10.2116C51.4754 10.2116 52.1678 10.3874 52.7538 10.739C53.3397 11.0906 53.7925 11.5842 54.1121 12.2198C54.4352 12.8555 54.5968 13.5959 54.5968 14.4411C54.5968 15.2862 54.4352 16.0249 54.1121 16.657C53.7925 17.2891 53.3397 17.7809 52.7538 18.1325C52.1678 18.484 51.4754 18.6598 50.6764 18.6598ZM50.687 17.1151C51.1203 17.1151 51.4825 16.9961 51.7737 16.7582C52.0649 16.5167 52.2815 16.1935 52.4235 15.7887C52.5691 15.3839 52.6419 14.9329 52.6419 14.4357C52.6419 13.935 52.5691 13.4822 52.4235 13.0774C52.2815 12.669 52.0649 12.3441 51.7737 12.1026C51.4825 11.8612 51.1203 11.7404 50.687 11.7404C50.2431 11.7404 49.8738 11.8612 49.5791 12.1026C49.2879 12.3441 49.0695 12.669 48.9239 13.0774C48.7818 13.4822 48.7108 13.935 48.7108 14.4357C48.7108 14.9329 48.7818 15.3839 48.9239 15.7887C49.0695 16.1935 49.2879 16.5167 49.5791 16.7582C49.8738 16.9961 50.2431 17.1151 50.687 17.1151ZM58.1617 13.706V18.5H56.2334V10.3182H58.0765V11.7085H58.1724C58.3606 11.2504 58.6606 10.8864 59.0726 10.6165C59.4881 10.3466 60.0012 10.2116 60.612 10.2116C61.1766 10.2116 61.6685 10.3324 62.0875 10.5739C62.5101 10.8153 62.8368 11.1651 63.0676 11.6232C63.302 12.0813 63.4174 12.6371 63.4138 13.2905V18.5H61.4856V13.5888C61.4856 13.0419 61.3435 12.614 61.0594 12.305C60.7789 11.9961 60.39 11.8416 59.8929 11.8416C59.5555 11.8416 59.2555 11.9162 58.9927 12.0653C58.7334 12.2109 58.5293 12.4222 58.3801 12.6992C58.2345 12.9762 58.1617 13.3118 58.1617 13.706ZM70.5889 15.0589V10.3182H72.5172V18.5H70.6475V17.0458H70.5623C70.3776 17.5039 70.074 17.8786 69.6514 18.1697C69.2324 18.4609 68.7157 18.6065 68.1013 18.6065C67.5651 18.6065 67.091 18.4876 66.6791 18.2496C66.2707 18.0082 65.9511 17.6584 65.7203 17.2003C65.4895 16.7386 65.3741 16.1811 65.3741 15.5277V10.3182H67.3023V15.2294C67.3023 15.7479 67.4444 16.1598 67.7285 16.4652C68.0126 16.7706 68.3854 16.9233 68.8471 16.9233C69.1312 16.9233 69.4064 16.854 69.6727 16.7156C69.9391 16.5771 70.1574 16.3711 70.3279 16.0977C70.5019 15.8207 70.5889 15.4744 70.5889 15.0589ZM80.9667 12.4808L79.2089 12.6726C79.1591 12.495 79.0721 12.3281 78.9478 12.1719C78.8271 12.0156 78.6638 11.8896 78.4578 11.7937C78.2518 11.6978 77.9997 11.6499 77.7014 11.6499C77.3001 11.6499 76.9628 11.7369 76.6893 11.9109C76.4194 12.0849 76.2863 12.3104 76.2898 12.5874C76.2863 12.8253 76.3733 13.0188 76.5508 13.168C76.7319 13.3171 77.0302 13.4396 77.4457 13.5355L78.8413 13.8338C79.6155 14.0007 80.1907 14.2653 80.5672 14.6275C80.9471 14.9897 81.1389 15.4638 81.1424 16.0497C81.1389 16.5646 80.988 17.0192 80.6897 17.4134C80.3949 17.804 79.9848 18.1094 79.4592 18.3295C78.9336 18.5497 78.3299 18.6598 77.6481 18.6598C76.6467 18.6598 75.8406 18.4503 75.2298 18.0312C74.619 17.6087 74.255 17.021 74.1378 16.2681L76.0182 16.087C76.1034 16.4563 76.2845 16.7351 76.5615 16.9233C76.8385 17.1115 77.1989 17.2056 77.6428 17.2056C78.1009 17.2056 78.4684 17.1115 78.7454 16.9233C79.026 16.7351 79.1662 16.5025 79.1662 16.2255C79.1662 15.9911 79.0757 15.7976 78.8946 15.6449C78.717 15.4922 78.44 15.375 78.0636 15.2933L76.668 15.0004C75.8832 14.837 75.3026 14.5618 74.9262 14.1747C74.5498 13.7841 74.3633 13.2905 74.3669 12.6939C74.3633 12.1896 74.5 11.7528 74.777 11.3835C75.0576 11.0107 75.4464 10.723 75.9436 10.5206C76.4443 10.3146 77.0214 10.2116 77.6748 10.2116C78.6336 10.2116 79.3882 10.4158 79.9386 10.8242C80.4926 11.2326 80.8353 11.7848 80.9667 12.4808Z" fill="white"/>
</svg>
