<svg width="36" height="37" viewBox="0 0 36 37" fill="none" xmlns="http://www.w3.org/2000/svg">
<rect y="0.490723" width="36" height="36" rx="18" fill="#4C5E6B"/>
<mask id="mask0_191_680" style="mask-type:alpha" maskUnits="userSpaceOnUse" x="7" y="7" width="22" height="23">
<rect x="7" y="7.49072" width="22" height="22" fill="#D9D9D9"/>
</mask>
<g mask="url(#mask0_191_680)">
<path d="M22.0091 10.6072C21.2478 11.3136 20.5604 12.0563 19.9513 12.8023C18.9536 11.4278 17.7164 10.0336 16.3152 8.73315C12.7187 12.0702 10.166 16.4182 10.166 19.0404C10.166 23.6981 13.8369 27.4737 18.365 27.4737C22.8931 27.4737 26.564 23.6981 26.564 19.0404C26.564 17.0906 24.6614 13.0691 22.0091 10.6072ZM21.2965 23.0759C20.5037 23.6308 19.526 23.9598 18.4697 23.9598C15.8288 23.9598 13.6799 22.2124 13.6799 19.3753C13.6799 17.9621 14.5697 16.7169 16.3442 14.5896C16.5978 14.8817 19.9616 19.1773 19.9616 19.1773L22.1076 16.7294C22.2591 16.9801 22.3971 17.2253 22.5201 17.4603C23.5212 19.3706 23.0988 21.8149 21.2965 23.0759Z" fill="white"/>
</g>
</svg>
