<svg width="36" height="36" viewBox="0 0 36 36" fill="none" xmlns="http://www.w3.org/2000/svg">
<rect width="36" height="36" rx="18" fill="#4C5E6B"/>
<g clip-path="url(#clip0_14_895)">
<g clip-path="url(#clip1_14_895)">
<path d="M17.991 9C16.7018 9.00281 15.4772 9.27844 14.3719 9.77287L14.4287 9.75037V10.9879L14.9912 11.5504C15.8777 11.1263 16.9183 10.8782 18.0169 10.8782C21.9645 10.8782 25.1646 14.0782 25.1646 18.0259C25.1646 21.9735 21.9645 25.1736 18.0169 25.1736C14.0693 25.1736 10.8692 21.9735 10.8692 18.0259C10.8692 16.9273 11.1173 15.8867 11.56 14.9569L11.5414 15.0002L10.9789 14.445H9.74139C9.27902 15.4929 9.00958 16.7153 9.00958 18C9.00958 22.9708 13.0388 27 18.0096 27C22.9804 27 27.0096 22.9708 27.0096 18C27.0096 13.0292 22.9804 9 18.0096 9C18.0034 9 17.9966 9 17.9905 9H17.991Z" fill="white"/>
<path d="M10.5508 12.9375H11.601L12.3508 13.6873L16.4908 17.8425C16.4891 17.8661 16.488 17.8937 16.488 17.9213C16.488 17.9488 16.4891 17.9764 16.4908 18.0034V18C16.4908 18.8286 17.1624 19.5002 17.991 19.5002C18.8195 19.5002 19.4912 18.8286 19.4912 18C19.4912 17.1714 18.8195 16.4998 17.991 16.4998H17.8335L12.9133 11.6021V8.99944H11.0531V11.0621H8.99042V12.9369L10.5508 12.9375Z" fill="white"/>
<path d="M17.991 21.375C16.1589 21.3716 14.6694 19.9086 14.6233 18.0866V18.0821L12.9808 16.4323C12.8284 16.8969 12.7406 17.4313 12.7406 17.9865C12.7406 17.991 12.7406 17.9961 12.7406 18.0006C12.7406 20.9002 15.0913 23.2498 17.9904 23.2498C20.8895 23.2498 23.2402 20.8991 23.2402 18C23.2402 15.1003 20.8895 12.7502 17.9904 12.7502C17.9865 12.7502 17.982 12.7502 17.9769 12.7502C17.4217 12.7502 16.8874 12.8379 16.3862 13.0005L16.4227 12.9904L18.0725 14.6329C19.9187 14.6559 21.4065 16.1584 21.4065 18.0079C21.4065 19.872 19.8956 21.3829 18.0315 21.3829C18.0169 21.3829 18.0022 21.3829 17.9882 21.3829H17.9904L17.991 21.375Z" fill="white"/>
</g>
</g>
<defs>
<clipPath id="clip0_14_895">
<rect width="18" height="18" fill="white" transform="translate(9 9)"/>
</clipPath>
<clipPath id="clip1_14_895">
<rect width="18" height="18" fill="white" transform="translate(9 9)"/>
</clipPath>
</defs>
</svg>
