<svg width="36" height="37" viewBox="0 0 36 37" fill="none" xmlns="http://www.w3.org/2000/svg">
<rect y="0.589905" width="36" height="36" rx="18" fill="#4C5E6B"/>
<mask id="mask0_191_1199" style="mask-type:alpha" maskUnits="userSpaceOnUse" x="7" y="7" width="22" height="23">
<rect x="7" y="7.5899" width="22" height="22" fill="#D9D9D9"/>
</mask>
<g mask="url(#mask0_191_1199)">
<path d="M17.1445 9.5093L14.8279 14.2063L9.64491 14.962C8.71544 15.0968 8.34294 16.2426 9.01699 16.8989L12.7668 20.553L11.8799 25.7147C11.7203 26.6477 12.7029 27.3466 13.526 26.9103L18.1627 24.4731L22.7994 26.9103C23.6224 27.3431 24.6051 26.6477 24.4455 25.7147L23.5586 20.553L27.3084 16.8989C27.9824 16.2426 27.6099 15.0968 26.6805 14.962L21.4974 14.2063L19.1808 9.5093C18.7658 8.67207 17.5631 8.66143 17.1445 9.5093Z" fill="white"/>
</g>
</svg>
