<svg width="36" height="36" viewBox="0 0 36 36" fill="none" xmlns="http://www.w3.org/2000/svg">
<rect width="36" height="36" rx="18" fill="#4C5E6B"/>
<mask id="mask0_14_874" style="mask-type:alpha" maskUnits="userSpaceOnUse" x="7" y="7" width="22" height="22">
<rect x="7" y="7" width="22" height="22" fill="#D9D9D9"/>
</mask>
<g mask="url(#mask0_14_874)">
<path d="M15.7669 16.4596C15.8203 15.5934 16.2534 14.7384 17.0044 14.2153C16.8581 13.9115 16.5572 13.7006 16.2 13.7006H15.3731L16.2366 13.0818C16.4391 12.9384 16.4869 12.6571 16.3406 12.4546L16.0791 12.089C15.9356 11.8865 15.6544 11.8387 15.4519 11.9849L14.5519 12.629L14.8753 11.7684C14.9625 11.5349 14.8444 11.2762 14.6109 11.189L14.1891 11.0315C13.9556 10.9443 13.6969 11.0624 13.6097 11.2959L13.05 12.7865L12.4903 11.2931C12.4031 11.0596 12.1444 10.9415 11.9109 11.0287L11.4891 11.1862C11.2556 11.2734 11.1375 11.5349 11.2275 11.7656L11.5509 12.6262L10.6481 11.9849C10.4456 11.8415 10.1644 11.8865 10.0209 12.089L9.75937 12.4546C9.61594 12.6571 9.66094 12.9384 9.86344 13.0818L10.7269 13.7006H9.9C9.40219 13.7006 9 14.1028 9 14.6006V24.5006C9 24.9984 9.40219 25.4006 9.9 25.4006H14.6503C14.4956 25.1334 14.4 24.8296 14.4 24.5006V18.2006C14.4 17.3596 14.985 16.6537 15.7669 16.4596ZM15.3 24.5006C15.3 24.9984 15.7022 25.4006 16.2 25.4006H20.7V21.8006H15.3V24.5006ZM21.6 25.4006H26.1C26.5978 25.4006 27 24.9984 27 24.5006V21.8006H21.6V25.4006ZM26.1 17.3006H25.5262C25.5994 17.0868 25.65 16.8646 25.65 16.6312C25.65 15.6328 24.8906 14.6006 23.6222 14.6006C22.2694 14.6006 21.4875 15.9421 21.15 16.7184C20.8097 15.9421 20.0278 14.6006 18.6778 14.6006C17.4094 14.6006 16.65 15.6328 16.65 16.6312C16.65 16.8646 16.6978 17.0868 16.7737 17.3006H16.2C15.7022 17.3006 15.3 17.7028 15.3 18.2006V20.9006H20.7V17.3006H21.1303L21.15 17.2949L21.1697 17.3006H21.6V20.9006H27V18.2006C27 17.7028 26.5978 17.3006 26.1 17.3006ZM18.45 17.3006C18.3741 17.2612 18.3066 17.2162 18.2475 17.1656C18.0422 16.9856 18 16.7774 18 16.6312C18 16.3584 18.18 15.9506 18.6778 15.9506C19.2037 15.9506 19.6791 16.7212 19.9294 17.3006H18.45ZM24.0525 17.1656C23.9934 17.2162 23.9259 17.2612 23.85 17.3006H22.3706C22.6181 16.7296 23.0963 15.9506 23.6222 15.9506C24.12 15.9506 24.3 16.3584 24.3 16.6312C24.3 16.7774 24.2578 16.9856 24.0525 17.1656Z" fill="white"/>
</g>
</svg>
