<svg width="36" height="36" viewBox="0 0 36 36" fill="none" xmlns="http://www.w3.org/2000/svg">
<rect width="36" height="36" rx="18" fill="#4C5E6B"/>
<g clip-path="url(#clip0_178_362)">
<path d="M18 24.25C22.4883 24.25 26.125 20.6133 26.125 16.125C26.125 11.6367 22.4883 8 18 8C13.5117 8 9.875 11.6367 9.875 16.125C9.875 20.6133 13.5117 24.25 18 24.25ZM17.1328 11.8047V11.1484C17.1328 10.7891 17.4219 10.5 17.7812 10.5H18.2148C18.5742 10.5 18.8633 10.7891 18.8633 11.1484V11.8125C19.4688 11.8438 20.0547 12.0508 20.543 12.4141C20.7617 12.5742 20.7852 12.8945 20.5898 13.082L19.9531 13.6875C19.8047 13.832 19.582 13.8359 19.4062 13.7266C19.1953 13.5938 18.9609 13.5273 18.7109 13.5273H17.1914C16.8398 13.5273 16.5547 13.8477 16.5547 14.2422C16.5547 14.5625 16.75 14.8477 17.0273 14.9297L19.4609 15.6602C20.4648 15.9609 21.168 16.9258 21.168 18.0078C21.168 19.3359 20.1367 20.4102 18.8594 20.4453V21.1016C18.8594 21.4609 18.5703 21.75 18.2109 21.75H17.7773C17.418 21.75 17.1289 21.4609 17.1289 21.1016V20.4375C16.5234 20.4062 15.9375 20.1992 15.4492 19.8359C15.2305 19.6758 15.207 19.3555 15.4023 19.168L16.0391 18.5625C16.1875 18.418 16.4102 18.4141 16.5859 18.5234C16.7969 18.6562 17.0312 18.7227 17.2812 18.7227H18.8008C19.1523 18.7227 19.4375 18.4023 19.4375 18.0078C19.4375 17.6875 19.2422 17.4023 18.9648 17.3203L16.5312 16.5898C15.5273 16.2891 14.8242 15.3242 14.8242 14.2422C14.8281 12.9141 15.8555 11.8398 17.1328 11.8047ZM26.75 21.75H25.4805C24.7148 22.7656 23.7383 23.6133 22.6289 24.25H25.1211C25.3281 24.25 25.4961 24.3906 25.4961 24.5625V25.1875C25.4961 25.3594 25.3281 25.5 25.1211 25.5H10.875C10.668 25.5 10.5 25.3594 10.5 25.1875V24.5625C10.5 24.3906 10.668 24.25 10.875 24.25H13.3672C12.2578 23.6133 11.2852 22.7656 10.5156 21.75H9.25C8.55859 21.75 8 22.3086 8 23V26.75C8 27.4414 8.55859 28 9.25 28H26.75C27.4414 28 28 27.4414 28 26.75V23C28 22.3086 27.4414 21.75 26.75 21.75Z" fill="white"/>
</g>
<defs>
<clipPath id="clip0_178_362">
<rect width="20" height="20" fill="white" transform="translate(8 8)"/>
</clipPath>
</defs>
</svg>
