<svg width="36" height="36" viewBox="0 0 36 36" fill="none" xmlns="http://www.w3.org/2000/svg">
<rect width="36" height="36" rx="18" fill="#4C5E6B"/>
<mask id="mask0_11_288" style="mask-type:alpha" maskUnits="userSpaceOnUse" x="7" y="7" width="22" height="22">
<rect x="7" y="7" width="22" height="22" fill="#D9D9D9"/>
</mask>
<g mask="url(#mask0_11_288)">
<path d="M27.4109 11.7092C26.1988 11.1955 24.9857 11 23.7732 11C19.9242 10.9997 16.0755 12.9685 12.2265 12.9685C11.2612 12.9685 10.2965 12.8447 9.33123 12.5353C9.22279 12.5005 9.11405 12.4841 9.0078 12.4841C8.46999 12.4841 8 12.9047 8 13.4886V23.5066C8 23.9054 8.22593 24.2834 8.58874 24.4368C9.80091 24.9509 11.014 25.1463 12.2265 25.1463C16.0755 25.1463 19.9245 23.1775 23.7735 23.1775C24.7388 23.1775 25.7035 23.3013 26.6688 23.6108C26.7772 23.6455 26.886 23.6619 26.9922 23.6619C27.53 23.6619 28 23.2413 28 22.6575V12.6398C27.9997 12.2406 27.7738 11.863 27.4109 11.7092ZM9.49998 14.1646C10.1287 14.3238 10.785 14.4036 11.4599 14.4466C11.2762 15.3746 10.4687 16.0741 9.49998 16.0741V14.1646ZM9.49998 23.164V21.6552C10.574 21.6552 11.4431 22.5163 11.4909 23.594C10.7868 23.5369 10.1287 23.3948 9.49998 23.164ZM17.9998 21.1045C16.6189 21.1045 15.4999 19.747 15.4999 18.0732C15.4999 16.399 16.6192 15.0418 17.9998 15.0418C19.3804 15.0418 20.4998 16.399 20.4998 18.0732C20.4998 19.7477 19.3801 21.1045 17.9998 21.1045ZM26.4997 21.9817C25.9522 21.8431 25.3838 21.7654 24.8022 21.7152C24.9857 20.8917 25.6616 20.2665 26.4997 20.1591V21.9817ZM26.4997 14.5262C25.5344 14.4027 24.7854 13.5883 24.7557 12.5826C25.3663 12.6511 25.946 12.7793 26.4997 12.9824V14.5262Z" fill="white"/>
</g>
</svg>
