<svg width="36" height="37" viewBox="0 0 36 37" fill="none" xmlns="http://www.w3.org/2000/svg">
<rect y="0.0239258" width="36" height="36" rx="18" fill="#4C5E6B"/>
<mask id="mask0_191_732" style="mask-type:alpha" maskUnits="userSpaceOnUse" x="7" y="7" width="22" height="23">
<rect x="7" y="7.02393" width="22" height="22" fill="#D9D9D9"/>
</mask>
<g mask="url(#mask0_191_732)">
<path d="M17.9999 19.8421L19.4666 20.9879C19.6143 21.105 19.7671 21.1089 19.9249 20.9994C20.0828 20.8899 20.1337 20.7435 20.0777 20.5601L19.4971 18.7268L21.0173 17.4893C21.1548 17.3722 21.1955 17.2283 21.1395 17.0577C21.0835 16.8871 20.9638 16.8018 20.7805 16.8018H18.9777L18.359 14.9761C18.2927 14.8029 18.1731 14.7164 17.9999 14.7164C17.8268 14.7164 17.7071 14.8029 17.6409 14.9761L17.0221 16.8018H15.2117C15.0284 16.8018 14.91 16.8871 14.8565 17.0577C14.803 17.2283 14.845 17.3722 14.9826 17.4893L16.4874 18.7268L15.9069 20.5678C15.8508 20.7511 15.8992 20.8975 16.052 21.007C16.2048 21.1165 16.3576 21.1127 16.5103 20.9955L17.9999 19.8421ZM10.361 25.3573C9.93834 25.3573 9.57804 25.2084 9.28013 24.9105C8.98221 24.6125 8.83325 24.2523 8.83325 23.8296V20.7817C8.83325 20.6238 8.87909 20.4863 8.97075 20.3692C9.06242 20.252 9.1821 20.1731 9.32979 20.1323C9.76774 19.9796 10.1153 19.7046 10.3725 19.3073C10.6297 18.9101 10.7583 18.4823 10.7583 18.024C10.7583 17.5759 10.6297 17.1506 10.3725 16.7483C10.1153 16.346 9.76774 16.0685 9.32979 15.9157C9.1821 15.8749 9.06242 15.796 8.97075 15.6789C8.87909 15.5617 8.83325 15.4242 8.83325 15.2664V12.2184C8.83325 11.7958 8.98221 11.4355 9.28013 11.1375C9.57804 10.8396 9.93834 10.6907 10.361 10.6907H25.6388C26.0615 10.6907 26.4218 10.8396 26.7197 11.1375C27.0176 11.4355 27.1666 11.7958 27.1666 12.2184V15.2664C27.1666 15.4242 27.1208 15.5617 27.0291 15.6789C26.9374 15.796 26.8177 15.8749 26.67 15.9157C26.2321 16.0685 25.8845 16.346 25.6273 16.7483C25.3702 17.1506 25.2416 17.5759 25.2416 18.024C25.2416 18.4823 25.3702 18.9101 25.6273 19.3073C25.8845 19.7046 26.2321 19.9796 26.67 20.1323C26.8177 20.1731 26.9374 20.252 27.0291 20.3692C27.1208 20.4863 27.1666 20.6238 27.1666 20.7817V23.8296C27.1666 24.2523 27.0176 24.6125 26.7197 24.9105C26.4218 25.2084 26.0615 25.3573 25.6388 25.3573H10.361ZM10.361 23.8296H25.6388V21.3851C25.0634 21.0083 24.5987 20.5283 24.2447 19.9452C23.8908 19.3621 23.7138 18.7217 23.7138 18.024C23.7138 17.3263 23.8908 16.6859 24.2447 16.1028C24.5987 15.5197 25.0634 15.0397 25.6388 14.6629V12.2184H10.361V14.6629C10.9467 15.0397 11.4139 15.5197 11.7628 16.1028C12.1116 16.6859 12.286 17.3263 12.286 18.024C12.286 18.7217 12.1116 19.3621 11.7628 19.9452C11.4139 20.5283 10.9467 21.0083 10.361 21.3851V23.8296Z" fill="white"/>
</g>
</svg>
