<svg width="36" height="36" viewBox="0 0 36 36" fill="none" xmlns="http://www.w3.org/2000/svg">
<rect width="36" height="36" rx="18" fill="#4C5E6B"/>
<mask id="mask0_14_855" style="mask-type:alpha" maskUnits="userSpaceOnUse" x="7" y="7" width="22" height="22">
<rect x="7" y="7" width="22" height="22" fill="#D9D9D9"/>
</mask>
<g mask="url(#mask0_14_855)">
<path d="M10.125 24.515C10.125 25.1326 10.6277 25.6316 11.25 25.6316H16.875V20.0489H10.125V24.515ZM19.125 25.6316H24.75C25.3723 25.6316 25.875 25.1326 25.875 24.515V20.0489H19.125V25.6316ZM25.875 14.4662H24.3949C24.6129 14.044 24.75 13.5764 24.75 13.0705C24.75 11.3782 23.3613 10 21.6562 10C20.1938 10 19.248 10.7432 18.0352 12.3831C16.8223 10.7432 15.8766 10 14.4141 10C12.709 10 11.3203 11.3782 11.3203 13.0705C11.3203 13.5764 11.4539 14.044 11.6754 14.4662H10.125C9.50273 14.4662 9 14.9651 9 15.5827V18.3741C9 18.6811 9.25312 18.9323 9.5625 18.9323H26.4375C26.7469 18.9323 27 18.6811 27 18.3741V15.5827C27 14.9651 26.4973 14.4662 25.875 14.4662ZM14.4105 14.4662C13.6336 14.4662 13.0043 13.8416 13.0043 13.0705C13.0043 12.2994 13.6336 11.6748 14.4105 11.6748C15.1102 11.6748 15.627 11.79 17.4375 14.4662H14.4105ZM21.6562 14.4662H18.6293C20.4363 11.7969 20.9391 11.6748 21.6562 11.6748C22.4332 11.6748 23.0625 12.2994 23.0625 13.0705C23.0625 13.8416 22.4332 14.4662 21.6562 14.4662Z" fill="white"/>
</g>
</svg>
