<svg width="36" height="36" viewBox="0 0 36 36" fill="none" xmlns="http://www.w3.org/2000/svg">
<rect width="36" height="36" rx="18" fill="#4C5E6B"/>
<mask id="mask0_88_416" style="mask-type:alpha" maskUnits="userSpaceOnUse" x="9" y="7" width="20" height="20">
<rect x="9" y="7" width="20" height="20" fill="#D9D9D9"/>
</mask>
<g mask="url(#mask0_88_416)">
<path d="M29 23.3624V19.7292H24.6128C24.5894 19.7279 24.5621 19.7273 24.5342 19.7273C23.4858 19.7273 22.6364 20.5411 22.6364 21.5455C22.6364 22.5498 23.4858 23.3637 24.5342 23.3637C24.5621 23.3637 24.5894 23.363 24.6167 23.3618H24.6128L29 23.3624ZM25.6235 21.5473C25.6216 22.005 25.2342 22.3755 24.7558 22.3755C24.2768 22.3755 23.8882 22.0031 23.8882 21.5442C23.8882 21.0853 24.2768 20.713 24.7558 20.713C25.2348 20.713 25.6235 21.0853 25.6235 21.5442C25.6235 21.5455 25.6235 21.5461 25.6235 21.5473Z" fill="white"/>
<path d="M12.2834 13.3636C11.9761 13.3651 11.7273 13.5581 11.7273 13.7963V13.8425C11.7273 14.0802 11.9761 14.2727 12.2834 14.2727H14.4546C14.2158 14.0107 14.0046 13.7112 13.84 13.3933L13.8262 13.3636H12.2834Z" fill="white"/>
<path d="M24.2609 13.3636C24.0615 13.7059 23.8256 14.0008 23.5455 14.2727L23.5588 14.2589H27.1818V13.3636H24.2609Z" fill="white"/>
<path d="M26.2727 12.4212V11.5455H24.5692C24.5636 11.8582 24.5243 12.1606 24.4545 12.4546L24.4609 12.4212H26.2727Z" fill="white"/>
<path d="M24.4924 18.4991H28.0909V17.522C28.0909 17.5208 28.0909 17.5202 28.0909 17.519C28.0909 16.6187 27.3632 15.8893 26.465 15.8875H12.1107C11.21 15.8248 10.5032 15.077 10.5032 14.1644C10.5032 14.1632 10.5032 14.1614 10.5032 14.1601C10.502 14.1368 10.5008 14.1091 10.5008 14.0821C10.5008 14.0551 10.5014 14.0274 10.5032 13.9998V14.0035C10.5738 13.1235 11.3033 12.4359 12.1936 12.4334H13.3747C13.3268 12.1686 13.298 11.8613 13.2949 11.5485V11.5455H11.1659C9.96942 11.5473 9 12.5188 9 13.7177V25.1166C9.00184 26.1563 9.84242 26.9982 10.8806 27H26.4619C27.3614 27 28.0909 26.2694 28.0909 25.3685V24.3884H24.4924C24.4642 24.3896 24.431 24.3903 24.3973 24.3903C22.7726 24.3903 21.4553 23.0709 21.4553 21.4438C21.4553 19.8166 22.7726 18.4973 24.3973 18.4973C24.4304 18.4973 24.4642 18.4979 24.4973 18.4991H24.4924Z" fill="white"/>
<path d="M23.5455 11.0403C23.5455 11.039 23.5455 11.0372 23.5455 11.036C23.5455 8.80688 21.714 7 19.4546 7C17.1951 7 15.3636 8.80688 15.3636 11.036C15.3636 12.3565 16.0065 13.5291 17.0006 14.2654L17.0112 14.2727H21.898C22.9026 13.5321 23.5455 12.362 23.5455 11.0433C23.5455 11.0421 23.5455 11.0409 23.5455 11.0403Z" fill="white"/>
</g>
</svg>
