<svg width="36" height="36" viewBox="0 0 36 36" fill="none" xmlns="http://www.w3.org/2000/svg">
<rect width="36" height="36" rx="18" fill="#4C5E6B"/>
<mask id="mask0_88_395" style="mask-type:alpha" maskUnits="userSpaceOnUse" x="7" y="7" width="22" height="22">
<rect x="7" y="7" width="22" height="22" fill="#D9D9D9"/>
</mask>
<g mask="url(#mask0_88_395)">
<mask id="mask1_88_395" style="mask-type:alpha" maskUnits="userSpaceOnUse" x="6" y="6" width="24" height="24">
<rect x="6" y="6" width="24" height="24" fill="#D9D9D9"/>
</mask>
<g mask="url(#mask1_88_395)">
<path d="M9 26C8.71667 26 8.47917 25.9042 8.2875 25.7125C8.09583 25.5208 8 25.2833 8 25V23.2C8 22.65 8.14167 22.1333 8.425 21.65C8.70833 21.1667 9.1 20.8 9.6 20.55C10.45 20.1167 11.4083 19.75 12.475 19.45C13.5417 19.15 14.7167 19 16 19C16.5 19 16.9875 19.025 17.4625 19.075C17.9375 19.125 18.4 19.2 18.85 19.3L17.1 21.05C16.9167 21.0167 16.7375 21 16.5625 21H16C14.8167 21 13.7542 21.1417 12.8125 21.425C11.8708 21.7083 11.1 22.0167 10.5 22.35C10.35 22.4333 10.2292 22.55 10.1375 22.7C10.0458 22.85 10 23.0167 10 23.2V24H16.25L18.25 26H9ZM21.55 25.975C21.4167 25.975 21.2917 25.9542 21.175 25.9125C21.0583 25.8708 20.95 25.8 20.85 25.7L18.8 23.65C18.6167 23.4667 18.525 23.2333 18.525 22.95C18.525 22.6667 18.6167 22.4333 18.8 22.25C18.9833 22.0667 19.2167 21.975 19.5 21.975C19.7833 21.975 20.0167 22.0667 20.2 22.25L21.55 23.6L25.9 19.25C26.0833 19.0667 26.3167 18.975 26.6 18.975C26.8833 18.975 27.1167 19.0667 27.3 19.25C27.4833 19.4333 27.575 19.6667 27.575 19.95C27.575 20.2333 27.4833 20.4667 27.3 20.65L22.25 25.7C22.15 25.8 22.0417 25.8708 21.925 25.9125C21.8083 25.9542 21.6833 25.975 21.55 25.975ZM16 18C14.9 18 13.9583 17.6083 13.175 16.825C12.3917 16.0417 12 15.1 12 14C12 12.9 12.3917 11.9583 13.175 11.175C13.9583 10.3917 14.9 10 16 10C17.1 10 18.0417 10.3917 18.825 11.175C19.6083 11.9583 20 12.9 20 14C20 15.1 19.6083 16.0417 18.825 16.825C18.0417 17.6083 17.1 18 16 18ZM16 16C16.55 16 17.0208 15.8042 17.4125 15.4125C17.8042 15.0208 18 14.55 18 14C18 13.45 17.8042 12.9792 17.4125 12.5875C17.0208 12.1958 16.55 12 16 12C15.45 12 14.9792 12.1958 14.5875 12.5875C14.1958 12.9792 14 13.45 14 14C14 14.55 14.1958 15.0208 14.5875 15.4125C14.9792 15.8042 15.45 16 16 16Z" fill="white"/>
</g>
</g>
</svg>
