<svg width="36" height="36" viewBox="0 0 36 36" fill="none" xmlns="http://www.w3.org/2000/svg">
<rect width="36" height="36" rx="18" fill="#4C5E6B"/>
<mask id="mask0_88_377" style="mask-type:alpha" maskUnits="userSpaceOnUse" x="7" y="7" width="22" height="22">
<rect x="7" y="7" width="22" height="22" fill="#D9D9D9"/>
</mask>
<g mask="url(#mask0_88_377)">
<mask id="mask1_88_377" style="mask-type:alpha" maskUnits="userSpaceOnUse" x="6" y="6" width="24" height="24">
<rect x="6" y="6" width="24" height="24" fill="#D9D9D9"/>
</mask>
<g mask="url(#mask1_88_377)">
<path d="M18 28C16.6333 28 15.3417 27.7375 14.125 27.2125C12.9083 26.6875 11.8458 25.9708 10.9375 25.0625C10.0292 24.1542 9.3125 23.0917 8.7875 21.875C8.2625 20.6583 8 19.3667 8 18C8 16.6167 8.2625 15.3208 8.7875 14.1125C9.3125 12.9042 10.0292 11.8458 10.9375 10.9375C11.8458 10.0292 12.9083 9.3125 14.125 8.7875C15.3417 8.2625 16.6333 8 18 8C18.5333 8 19.0458 8.0375 19.5375 8.1125C20.0292 8.1875 20.5167 8.3 21 8.45V11C21 11.55 20.8042 12.0208 20.4125 12.4125C20.0208 12.8042 19.55 13 19 13H17V15C17 15.2833 16.9042 15.5208 16.7125 15.7125C16.5208 15.9042 16.2833 16 16 16H14V18H20C20.2833 18 20.5208 18.0958 20.7125 18.2875C20.9042 18.4792 21 18.7167 21 19V22H22C22.45 22 22.8458 22.1333 23.1875 22.4C23.5292 22.6667 23.7667 23 23.9 23.4C24.55 22.6667 25.0625 21.8458 25.4375 20.9375C25.8125 20.0292 26 19.05 26 18C26 17.8167 25.9917 17.65 25.975 17.5C25.9583 17.35 25.9333 17.1833 25.9 17H27.95C27.9833 17.1833 28 17.35 28 17.5V18C28 19.3667 27.7375 20.6583 27.2125 21.875C26.6875 23.0917 25.9708 24.1542 25.0625 25.0625C24.1542 25.9708 23.0958 26.6875 21.8875 27.2125C20.6792 27.7375 19.3833 28 18 28ZM17 25.95V24C16.45 24 15.9792 23.8042 15.5875 23.4125C15.1958 23.0208 15 22.55 15 22V21L10.2 16.2C10.15 16.5 10.1042 16.8 10.0625 17.1C10.0208 17.4 10 17.7 10 18C10 20.0667 10.6708 21.8458 12.0125 23.3375C13.3542 24.8292 15.0167 25.7 17 25.95ZM24 15C23.7167 15 23.4792 14.9042 23.2875 14.7125C23.0958 14.5208 23 14.2833 23 14V11C23 10.7167 23.0958 10.4792 23.2875 10.2875C23.4792 10.0958 23.7167 10 24 10V9C24 8.45 24.1958 7.97917 24.5875 7.5875C24.9792 7.19583 25.45 7 26 7C26.55 7 27.0208 7.19583 27.4125 7.5875C27.8042 7.97917 28 8.45 28 9V10C28.2833 10 28.5208 10.0958 28.7125 10.2875C28.9042 10.4792 29 10.7167 29 11V14C29 14.2833 28.9042 14.5208 28.7125 14.7125C28.5208 14.9042 28.2833 15 28 15H24ZM25 10H27V9C27 8.71667 26.9042 8.47917 26.7125 8.2875C26.5208 8.09583 26.2833 8 26 8C25.7167 8 25.4792 8.09583 25.2875 8.2875C25.0958 8.47917 25 8.71667 25 9V10Z" fill="white"/>
</g>
</g>
</svg>
